<svg width="1110" height="48" viewBox="0 0 1110 48" fill="none" xmlns="http://www.w3.org/2000/svg">
<path fill-rule="evenodd" clip-rule="evenodd" d="M68.3174 33.5312V17.2143H72.6997V12.192H68.3174V4H62.1474V12.192H58.3538V17.2143H62.1474V33.5312H68.3174ZM6.21366 22.2366V33.5312H0V12.192H6.21366V15.2946C6.72238 14.1935 7.44913 13.3229 8.3939 12.683C9.41134 12.0729 10.5015 11.7679 11.6642 11.7679C14.9637 11.7679 17.1948 13.0179 18.3576 15.5179C19.8837 12.9881 21.9549 11.7232 24.5712 11.7232C27.1875 11.7232 29.186 12.564 30.5669 14.2455C31.9477 15.9271 32.6381 18.3155 32.6381 21.4107V33.5312H26.4898V22.1473C26.4898 20.8378 26.1773 19.8036 25.5523 19.0446C24.8983 18.2857 24.0407 17.9062 22.9797 17.9062C21.9186 17.9062 21.0683 18.2634 20.4288 18.9777C19.7892 19.692 19.4695 20.7783 19.4695 22.2366V33.5312H13.2558V22.0134C13.1977 20.7336 12.8561 19.7292 12.2311 19C11.5916 18.2708 10.7631 17.9062 9.74564 17.9062C8.7282 17.9062 7.88517 18.256 7.21657 18.9554C6.54797 19.6548 6.21366 20.7485 6.21366 22.2366ZM57.4981 12.192L44.6347 44H38.0722L43.0868 31.3438L35.0417 12.192H41.6478L46.2481 24.2902L50.892 12.192H57.4981ZM95.2923 29.6473C93.3591 32.5491 90.1833 33.9926 85.7646 33.9777C82.6978 33.9777 80.1106 32.9435 78.003 30.875C75.9245 28.7768 74.8853 26.0833 74.8853 22.7946C74.8853 19.506 75.9245 16.8348 78.003 14.7812C80.0815 12.7277 82.6542 11.7083 85.721 11.7232C88.7879 11.7232 91.3388 12.7649 93.3737 14.8482C95.4085 16.9315 96.4333 19.6399 96.4478 22.9732C96.4478 23.003 96.4187 23.6577 96.3606 24.9375H81.0771C81.1934 26.0685 81.7603 26.9464 82.7777 27.5714C83.7952 28.1964 84.9434 28.5089 86.2225 28.5089C88.2138 28.5089 89.7327 27.8393 90.7792 26.5L95.2923 29.6473ZM90.1905 20.9643H81.1644C81.3969 19.8036 81.9783 18.8958 82.9085 18.2411C83.8097 17.5863 84.7835 17.2738 85.83 17.3036C86.8766 17.3333 87.8286 17.6607 88.6862 18.2857C89.5437 18.9107 90.0452 19.8036 90.1905 20.9643ZM113.088 33.2188C111.911 33.7247 110.785 33.9628 109.709 33.933C106.846 33.933 104.36 32.9062 102.253 30.8527C100.145 28.7991 99.0912 26.128 99.0912 22.8393C99.0912 19.5506 100.181 16.8795 102.362 14.8259C104.542 12.7723 106.991 11.7381 109.709 11.7232C110.814 11.7232 111.947 11.9688 113.11 12.4598C114.273 12.9509 115.167 13.6503 115.792 14.558V12.192H121.94V33.5312H115.792V31.0982C115.167 32.006 114.266 32.7128 113.088 33.2188ZM110.712 27.9062C109.302 27.9062 108.088 27.4301 107.071 26.4777C106.024 25.5253 105.501 24.3199 105.501 22.8616C105.501 21.4182 106.024 20.2054 107.071 19.2232C108.205 18.256 109.447 17.7723 110.799 17.7723C112.151 17.7723 113.321 18.2485 114.309 19.2009C115.298 20.1533 115.792 21.3735 115.792 22.8616C115.792 24.3497 115.298 25.5625 114.309 26.5C113.321 27.4375 112.122 27.9062 110.712 27.9062ZM133.522 22.2366V33.5312H127.309V12.192H133.522V15.2946C134.031 14.1935 134.758 13.3229 135.703 12.683C136.72 12.0729 137.81 11.7679 138.973 11.7679C142.272 11.7679 144.504 13.0179 145.666 15.5179C147.193 12.9881 149.264 11.7232 151.88 11.7232C154.496 11.7232 156.495 12.564 157.876 14.2455C159.256 15.9271 159.947 18.3155 159.947 21.4107V33.5312H153.799V22.1473C153.799 20.8378 153.486 19.8036 152.861 19.0446C152.207 18.2857 151.35 17.9062 150.288 17.9062C149.227 17.9062 148.377 18.2634 147.738 18.9777C147.098 19.692 146.778 20.7783 146.778 22.2366V33.5312H140.565V22.0134C140.506 20.7336 140.165 19.7292 139.54 19C138.9 18.2708 138.072 17.9062 137.054 17.9062C136.037 17.9062 135.194 18.256 134.525 18.9554C133.857 19.6548 133.522 20.7485 133.522 22.2366Z" fill="white"/>
<g clip-path="url(#clip0_0_4208)">
<path d="M241.17 31V17.68H243.366L243.384 21.91L243.258 24.178C243.618 23.41 244.092 22.816 244.68 22.396C245.28 21.976 245.964 21.766 246.732 21.766C247.752 21.766 248.52 22.12 249.036 22.828C249.564 23.524 249.822 24.526 249.81 25.834L249.774 31H247.578L247.614 26.014C247.626 25.306 247.512 24.766 247.272 24.394C247.044 24.01 246.672 23.818 246.156 23.818C245.76 23.818 245.394 23.932 245.058 24.16C244.722 24.388 244.428 24.778 244.176 25.33C243.924 25.87 243.726 26.608 243.582 27.544C243.438 28.468 243.36 29.62 243.348 31H241.17ZM256.282 21.766C257.638 21.766 258.7 22.174 259.468 22.99C260.248 23.794 260.638 24.886 260.638 26.266C260.638 27.202 260.44 28.042 260.044 28.786C259.66 29.518 259.114 30.1 258.406 30.532C257.698 30.952 256.876 31.162 255.94 31.162C254.584 31.162 253.516 30.76 252.736 29.956C251.968 29.152 251.584 28.054 251.584 26.662C251.584 25.726 251.776 24.892 252.16 24.16C252.556 23.416 253.102 22.834 253.798 22.414C254.506 21.982 255.334 21.766 256.282 21.766ZM256.012 29.236C256.72 29.236 257.29 28.966 257.722 28.426C258.154 27.886 258.37 27.166 258.37 26.266C258.37 25.45 258.178 24.82 257.794 24.376C257.422 23.932 256.906 23.71 256.246 23.71C255.514 23.71 254.932 23.98 254.5 24.52C254.068 25.06 253.852 25.774 253.852 26.662C253.852 27.478 254.038 28.114 254.41 28.57C254.794 29.014 255.328 29.236 256.012 29.236ZM262.545 31V21.91H264.741L264.633 24.142C265.005 23.314 265.485 22.714 266.073 22.342C266.673 21.958 267.315 21.766 267.999 21.766C268.659 21.766 269.241 21.946 269.745 22.306C270.249 22.666 270.609 23.23 270.825 23.998C271.209 23.242 271.713 22.684 272.337 22.324C272.973 21.952 273.627 21.766 274.299 21.766C275.307 21.766 276.069 22.12 276.585 22.828C277.113 23.524 277.371 24.526 277.359 25.834L277.323 31H275.127L275.163 25.906C275.163 25.246 275.043 24.736 274.803 24.376C274.563 24.004 274.191 23.818 273.687 23.818C273.339 23.818 273.003 23.932 272.679 24.16C272.367 24.376 272.085 24.754 271.833 25.294C271.593 25.834 271.401 26.572 271.257 27.508C271.113 28.432 271.035 29.596 271.023 31H268.845V25.906C268.845 25.246 268.731 24.736 268.503 24.376C268.275 24.004 267.909 23.818 267.405 23.818C267.057 23.818 266.721 23.932 266.397 24.16C266.085 24.376 265.803 24.754 265.551 25.294C265.311 25.834 265.113 26.572 264.957 27.508C264.813 28.432 264.735 29.596 264.723 31H262.545ZM283.916 31.162C282.932 31.162 282.08 30.982 281.36 30.622C280.652 30.25 280.106 29.722 279.722 29.038C279.338 28.354 279.146 27.538 279.146 26.59C279.146 25.642 279.344 24.808 279.74 24.088C280.136 23.356 280.67 22.786 281.342 22.378C282.026 21.97 282.8 21.766 283.664 21.766C285.068 21.766 286.1 22.246 286.76 23.206C287.432 24.154 287.666 25.468 287.462 27.148H281.378C281.426 27.784 281.684 28.294 282.152 28.678C282.62 29.062 283.262 29.254 284.078 29.254C284.462 29.254 284.846 29.17 285.23 29.002C285.626 28.834 285.962 28.576 286.238 28.228L287.516 29.524C287.108 30.04 286.61 30.442 286.022 30.73C285.446 31.018 284.744 31.162 283.916 31.162ZM283.7 23.422C283.088 23.422 282.584 23.614 282.188 23.998C281.792 24.382 281.54 24.898 281.432 25.546H285.572C285.596 24.802 285.434 24.262 285.086 23.926C284.738 23.59 284.276 23.422 283.7 23.422Z" fill="white"/>
<path d="M338.666 21.946V31H336.434L336.506 29.416C336.182 29.968 335.756 30.4 335.228 30.712C334.712 31.012 334.118 31.162 333.446 31.162C332.654 31.162 331.982 30.982 331.43 30.622C330.878 30.25 330.458 29.74 330.17 29.092C329.882 28.444 329.738 27.7 329.738 26.86C329.738 25.852 329.936 24.97 330.332 24.214C330.728 23.446 331.268 22.846 331.952 22.414C332.648 21.982 333.428 21.766 334.292 21.766C334.868 21.766 335.378 21.892 335.822 22.144C336.266 22.384 336.608 22.708 336.848 23.116L337.064 21.946H338.666ZM334.454 23.71C333.71 23.71 333.116 23.992 332.672 24.556C332.228 25.12 332.006 25.858 332.006 26.77C332.006 27.55 332.174 28.156 332.51 28.588C332.846 29.02 333.308 29.236 333.896 29.236C334.376 29.236 334.808 29.098 335.192 28.822C335.588 28.546 335.9 28.162 336.128 27.67C336.356 27.178 336.47 26.614 336.47 25.978C336.47 25.27 336.29 24.718 335.93 24.322C335.57 23.914 335.078 23.71 334.454 23.71ZM340.998 31V17.68H343.194V21.91L343.122 23.566C343.446 22.99 343.866 22.546 344.382 22.234C344.91 21.922 345.516 21.766 346.2 21.766C347.004 21.766 347.682 21.952 348.234 22.324C348.786 22.696 349.206 23.206 349.494 23.854C349.782 24.502 349.926 25.24 349.926 26.068C349.926 27.076 349.728 27.964 349.332 28.732C348.936 29.5 348.39 30.1 347.694 30.532C347.01 30.952 346.236 31.162 345.372 31.162C344.784 31.162 344.268 31.042 343.824 30.802C343.38 30.55 343.044 30.22 342.816 29.812L342.6 31H340.998ZM345.192 29.236C345.948 29.236 346.548 28.948 346.992 28.372C347.436 27.796 347.658 27.052 347.658 26.14C347.658 25.372 347.49 24.778 347.154 24.358C346.818 23.926 346.356 23.71 345.768 23.71C345.276 23.71 344.838 23.848 344.454 24.124C344.07 24.388 343.764 24.766 343.536 25.258C343.308 25.738 343.194 26.296 343.194 26.932C343.194 27.64 343.374 28.204 343.734 28.624C344.094 29.032 344.58 29.236 345.192 29.236ZM356.092 21.766C357.448 21.766 358.51 22.174 359.278 22.99C360.058 23.794 360.448 24.886 360.448 26.266C360.448 27.202 360.25 28.042 359.854 28.786C359.47 29.518 358.924 30.1 358.216 30.532C357.508 30.952 356.686 31.162 355.75 31.162C354.394 31.162 353.326 30.76 352.546 29.956C351.778 29.152 351.394 28.054 351.394 26.662C351.394 25.726 351.586 24.892 351.97 24.16C352.366 23.416 352.912 22.834 353.608 22.414C354.316 21.982 355.144 21.766 356.092 21.766ZM355.822 29.236C356.53 29.236 357.1 28.966 357.532 28.426C357.964 27.886 358.18 27.166 358.18 26.266C358.18 25.45 357.988 24.82 357.604 24.376C357.232 23.932 356.716 23.71 356.056 23.71C355.324 23.71 354.742 23.98 354.31 24.52C353.878 25.06 353.662 25.774 353.662 26.662C353.662 27.478 353.848 28.114 354.22 28.57C354.604 29.014 355.138 29.236 355.822 29.236ZM365.254 31.162C364.246 31.162 363.484 30.82 362.968 30.136C362.464 29.452 362.218 28.504 362.23 27.292L362.266 21.91H364.462L364.426 27.094C364.414 27.718 364.522 28.21 364.75 28.57C364.978 28.93 365.338 29.11 365.83 29.11C366.214 29.11 366.568 28.996 366.892 28.768C367.228 28.54 367.516 28.156 367.756 27.616C367.996 27.064 368.182 26.326 368.314 25.402C368.458 24.466 368.53 23.302 368.53 21.91H370.654V31H368.44L368.566 28.93C368.206 29.662 367.738 30.22 367.162 30.604C366.598 30.976 365.962 31.162 365.254 31.162ZM376.842 31.162C375.75 31.162 374.898 30.862 374.286 30.262C373.686 29.662 373.392 28.876 373.404 27.904L373.476 23.746H371.928V21.91H373.512L373.53 20.038H375.726L375.69 21.91H378.66V23.746H375.672L375.618 27.67C375.606 28.162 375.726 28.552 375.978 28.84C376.242 29.116 376.632 29.254 377.148 29.254C377.424 29.254 377.682 29.218 377.922 29.146C378.162 29.074 378.414 28.942 378.678 28.75L379.326 30.442C379.05 30.682 378.696 30.862 378.264 30.982C377.832 31.102 377.358 31.162 376.842 31.162Z" fill="white"/>
</g>
<g clip-path="url(#clip1_0_4208)">
<rect x="958" y="1" width="151" height="46" rx="23" stroke="white" stroke-width="2"/>
<path d="M994.22 30.162C992.84 30.162 991.748 29.766 990.944 28.974C990.14 28.17 989.738 27.054 989.738 25.626C989.738 24.666 989.936 23.82 990.332 23.088C990.728 22.356 991.28 21.786 991.988 21.378C992.696 20.97 993.512 20.766 994.436 20.766C995.204 20.766 995.876 20.916 996.452 21.216C997.028 21.516 997.496 21.984 997.856 22.62L996.29 23.808C996.062 23.424 995.798 23.148 995.498 22.98C995.21 22.812 994.856 22.728 994.436 22.728C993.728 22.728 993.146 22.992 992.69 23.52C992.246 24.048 992.024 24.744 992.024 25.608C992.024 26.448 992.222 27.096 992.618 27.552C993.026 27.996 993.608 28.218 994.364 28.218C994.76 28.218 995.126 28.128 995.462 27.948C995.81 27.768 996.098 27.486 996.326 27.102L997.856 28.326C997.448 28.986 996.932 29.46 996.308 29.748C995.684 30.024 994.988 30.162 994.22 30.162ZM1002.96 20.766C1004.32 20.766 1005.38 21.174 1006.15 21.99C1006.93 22.794 1007.32 23.886 1007.32 25.266C1007.32 26.202 1007.12 27.042 1006.72 27.786C1006.34 28.518 1005.79 29.1 1005.09 29.532C1004.38 29.952 1003.56 30.162 1002.62 30.162C1001.26 30.162 1000.2 29.76 999.415 28.956C998.647 28.152 998.263 27.054 998.263 25.662C998.263 24.726 998.455 23.892 998.839 23.16C999.235 22.416 999.781 21.834 1000.48 21.414C1001.19 20.982 1002.01 20.766 1002.96 20.766ZM1002.69 28.236C1003.4 28.236 1003.97 27.966 1004.4 27.426C1004.83 26.886 1005.05 26.166 1005.05 25.266C1005.05 24.45 1004.86 23.82 1004.47 23.376C1004.1 22.932 1003.59 22.71 1002.93 22.71C1002.19 22.71 1001.61 22.98 1001.18 23.52C1000.75 24.06 1000.53 24.774 1000.53 25.662C1000.53 26.478 1000.72 27.114 1001.09 27.57C1001.47 28.014 1002.01 28.236 1002.69 28.236ZM1009.22 30V20.91H1011.42L1011.31 23.196C1011.66 22.416 1012.13 21.816 1012.73 21.396C1013.33 20.976 1014.02 20.766 1014.79 20.766C1015.81 20.766 1016.57 21.12 1017.09 21.828C1017.62 22.524 1017.88 23.526 1017.86 24.834L1017.83 30H1015.63L1015.67 25.014C1015.68 24.306 1015.57 23.766 1015.33 23.394C1015.1 23.01 1014.73 22.818 1014.21 22.818C1013.81 22.818 1013.45 22.932 1013.11 23.16C1012.78 23.388 1012.48 23.778 1012.23 24.33C1011.98 24.87 1011.78 25.608 1011.64 26.544C1011.49 27.468 1011.41 28.62 1011.4 30H1009.22ZM1023.92 30.162C1022.83 30.162 1021.98 29.862 1021.37 29.262C1020.77 28.662 1020.47 27.876 1020.48 26.904L1020.56 22.746H1019.01V20.91H1020.59L1020.61 19.038H1022.81L1022.77 20.91H1025.74V22.746H1022.75L1022.7 26.67C1022.69 27.162 1022.81 27.552 1023.06 27.84C1023.32 28.116 1023.71 28.254 1024.23 28.254C1024.5 28.254 1024.76 28.218 1025 28.146C1025.24 28.074 1025.49 27.942 1025.76 27.75L1026.41 29.442C1026.13 29.682 1025.78 29.862 1025.34 29.982C1024.91 30.102 1024.44 30.162 1023.92 30.162ZM1035.69 20.946V30H1033.45L1033.53 28.416C1033.2 28.968 1032.78 29.4 1032.25 29.712C1031.73 30.012 1031.14 30.162 1030.47 30.162C1029.67 30.162 1029 29.982 1028.45 29.622C1027.9 29.25 1027.48 28.74 1027.19 28.092C1026.9 27.444 1026.76 26.7 1026.76 25.86C1026.76 24.852 1026.96 23.97 1027.35 23.214C1027.75 22.446 1028.29 21.846 1028.97 21.414C1029.67 20.982 1030.45 20.766 1031.31 20.766C1031.89 20.766 1032.4 20.892 1032.84 21.144C1033.29 21.384 1033.63 21.708 1033.87 22.116L1034.08 20.946H1035.69ZM1031.47 22.71C1030.73 22.71 1030.14 22.992 1029.69 23.556C1029.25 24.12 1029.03 24.858 1029.03 25.77C1029.03 26.55 1029.19 27.156 1029.53 27.588C1029.87 28.02 1030.33 28.236 1030.92 28.236C1031.4 28.236 1031.83 28.098 1032.21 27.822C1032.61 27.546 1032.92 27.162 1033.15 26.67C1033.38 26.178 1033.49 25.614 1033.49 24.978C1033.49 24.27 1033.31 23.718 1032.95 23.322C1032.59 22.914 1032.1 22.71 1031.47 22.71ZM1042.07 30.162C1040.69 30.162 1039.6 29.766 1038.79 28.974C1037.99 28.17 1037.59 27.054 1037.59 25.626C1037.59 24.666 1037.78 23.82 1038.18 23.088C1038.58 22.356 1039.13 21.786 1039.84 21.378C1040.54 20.97 1041.36 20.766 1042.28 20.766C1043.05 20.766 1043.72 20.916 1044.3 21.216C1044.88 21.516 1045.34 21.984 1045.7 22.62L1044.14 23.808C1043.91 23.424 1043.65 23.148 1043.35 22.98C1043.06 22.812 1042.7 22.728 1042.28 22.728C1041.58 22.728 1040.99 22.992 1040.54 23.52C1040.09 24.048 1039.87 24.744 1039.87 25.608C1039.87 26.448 1040.07 27.096 1040.47 27.552C1040.87 27.996 1041.46 28.218 1042.21 28.218C1042.61 28.218 1042.97 28.128 1043.31 27.948C1043.66 27.768 1043.95 27.486 1044.17 27.102L1045.7 28.326C1045.3 28.986 1044.78 29.46 1044.16 29.748C1043.53 30.024 1042.84 30.162 1042.07 30.162ZM1050.83 30.162C1049.74 30.162 1048.89 29.862 1048.28 29.262C1047.68 28.662 1047.38 27.876 1047.4 26.904L1047.47 22.746H1045.92V20.91H1047.5L1047.52 19.038H1049.72L1049.68 20.91H1052.65V22.746H1049.66L1049.61 26.67C1049.6 27.162 1049.72 27.552 1049.97 27.84C1050.23 28.116 1050.62 28.254 1051.14 28.254C1051.42 28.254 1051.67 28.218 1051.91 28.146C1052.15 28.074 1052.41 27.942 1052.67 27.75L1053.32 29.442C1053.04 29.682 1052.69 29.862 1052.26 29.982C1051.82 30.102 1051.35 30.162 1050.83 30.162ZM1061.55 30.162C1060.54 30.162 1059.78 29.82 1059.27 29.136C1058.76 28.452 1058.52 27.504 1058.53 26.292L1058.56 20.91H1060.76L1060.72 26.094C1060.71 26.718 1060.82 27.21 1061.05 27.57C1061.28 27.93 1061.64 28.11 1062.13 28.11C1062.51 28.11 1062.87 27.996 1063.19 27.768C1063.53 27.54 1063.81 27.156 1064.05 26.616C1064.29 26.064 1064.48 25.326 1064.61 24.402C1064.76 23.466 1064.83 22.302 1064.83 20.91H1066.95V30H1064.74L1064.86 27.93C1064.5 28.662 1064.04 29.22 1063.46 29.604C1062.9 29.976 1062.26 30.162 1061.55 30.162ZM1072.48 30.162C1071.23 30.162 1070.27 29.928 1069.61 29.46C1068.95 28.98 1068.57 28.314 1068.46 27.462L1070.32 27.012C1070.39 27.468 1070.6 27.822 1070.95 28.074C1071.29 28.314 1071.79 28.434 1072.44 28.434C1072.97 28.434 1073.36 28.35 1073.63 28.182C1073.9 28.014 1074.04 27.786 1074.04 27.498C1074.04 27.21 1073.89 26.988 1073.59 26.832C1073.3 26.676 1072.85 26.538 1072.24 26.418C1071.56 26.286 1070.97 26.118 1070.48 25.914C1070 25.71 1069.63 25.434 1069.36 25.086C1069.11 24.726 1068.98 24.258 1068.98 23.682C1068.98 23.13 1069.14 22.638 1069.45 22.206C1069.76 21.762 1070.19 21.414 1070.73 21.162C1071.28 20.898 1071.91 20.766 1072.62 20.766C1073.57 20.766 1074.34 20.988 1074.94 21.432C1075.55 21.876 1075.92 22.446 1076.04 23.142L1074.22 23.628C1074.14 23.28 1073.96 23.01 1073.68 22.818C1073.41 22.614 1073.03 22.512 1072.57 22.512C1072.1 22.512 1071.74 22.608 1071.49 22.8C1071.25 22.992 1071.13 23.232 1071.13 23.52C1071.13 23.808 1071.26 24.036 1071.54 24.204C1071.83 24.36 1072.31 24.51 1073 24.654C1073.63 24.786 1074.19 24.954 1074.65 25.158C1075.13 25.35 1075.51 25.62 1075.79 25.968C1076.06 26.304 1076.2 26.76 1076.2 27.336C1076.2 27.9 1076.04 28.398 1075.72 28.83C1075.4 29.25 1074.97 29.58 1074.4 29.82C1073.84 30.048 1073.2 30.162 1072.48 30.162Z" fill="white"/>
</g>
<defs>
<clipPath id="clip0_0_4208">
<rect width="140" height="28" fill="white" transform="translate(240 10)"/>
</clipPath>
<clipPath id="clip1_0_4208">
<rect width="153" height="48" fill="white" transform="translate(957)"/>
</clipPath>
</defs>
</svg>
